HIERARCHY
ROOT hip
{
  OFFSET 0 0 0
  CHANNELS 6 Xposition Yposition Zposition Zrotation Yrotation Xrotation
  JOINT abdomen
  {
    OFFSET 0 20.6881 -0.73152
    CHANNELS 3 Zrotation Xrotation Yrotation
    JOINT chest
    {
      OFFSET 0 11.7043 -0.48768
      CHANNELS 3 Zrotation Xrotation Yrotation
      JOINT neck
      {
        OFFSET 0 22.1894 -2.19456
        CHANNELS 3 Zrotation Xrotation Yrotation
        JOINT head
        {
          OFFSET -0.24384 7.07133 1.2192
          CHANNELS 3 Zrotation Xrotation Yrotation
          JOINT leftEye
          {
            OFFSET 4.14528 8.04674 8.04672
            CHANNELS 3 Zrotation Xrotation Yrotation
            End Site
            {
              OFFSET 1 0 0
            }
          }
          JOINT rightEye
          {
            OFFSET -3.6576 8.04674 8.04672
            CHANNELS 3 Zrotation Xrotation Yrotation
            End Site
            {
              OFFSET 1 0 0
            }
          }
        }
      }
      JOINT rCollar
      {
        OFFSET -2.68224 19.2634 -4.8768
        CHANNELS 3 Zrotation Xrotation Yrotation
        JOINT rShldr
        {
          OFFSET -8.77824 -1.95073 1.46304
          CHANNELS 3 Zrotation Xrotation Yrotation
          JOINT rForeArm
          {
            OFFSET -28.1742 -1.7115 0.48768
            CHANNELS 3 Zrotation Xrotation Yrotation
            JOINT rHand
            {
              OFFSET -22.5879 0.773209 7.07136
              CHANNELS 3 Zrotation Xrotation Yrotation
              JOINT rThumb1
              {
                OFFSET -1.2192 -0.487915 3.41376
                CHANNELS 3 Zrotation Xrotation Yrotation
                JOINT rThumb2
                {
                  OFFSET -3.37035 -0.52449 3.41376
                  CHANNELS 3 Zrotation Xrotation Yrotation
                  End Site
                  {
                    OFFSET -1.78271 -1.18214 1.43049
                  }
                }
              }
              JOINT rIndex1
              {
                OFFSET -7.75947 0.938293 5.60832
                CHANNELS 3 Zrotation Xrotation Yrotation
                JOINT rIndex2
                {
                  OFFSET -2.54057 -0.884171 1.56538
                  CHANNELS 3 Zrotation Xrotation Yrotation
                  End Site
                  {
                    OFFSET -1.62519 -0.234802 1.16502
                  }
                }
              }
              JOINT rMid1
              {
                OFFSET -8.24714 1.18213 3.41376
                CHANNELS 3 Zrotation Xrotation Yrotation
                JOINT rMid2
                {
                  OFFSET -3.10165 -0.590103 1.0647
                  CHANNELS 3 Zrotation Xrotation Yrotation
                  End Site
                  {
                    OFFSET -2.48547 -0.328903 0.83742
                  }
                }
              }
              JOINT rRing1
              {
                OFFSET -8.82822 0.546677 1.51678
                CHANNELS 3 Zrotation Xrotation Yrotation
                JOINT rRing2
                {
                  OFFSET -2.60934 -0.819778 -0.0198488
                  CHANNELS 3 Zrotation Xrotation Yrotation
                  End Site
                  {
                    OFFSET -2.33842 -0.294052 0.168128
                  }
                }
              }
              JOINT rPinky1
              {
                OFFSET -8.27202 -0.0477905 -0.4584
                CHANNELS 3 Zrotation Xrotation Yrotation
                JOINT rPinky2
                {
                  OFFSET -1.82734 -0.647385 -0.700984
                  CHANNELS 3 Zrotation Xrotation Yrotation
                  End Site
                  {
                    OFFSET -1.69225 -0.51767 -0.607171
                  }
                }
              }
            }
          }
        }
      }
      JOINT lCollar
      {
        OFFSET 2.68224 19.2634 -4.8768
        CHANNELS 3 Zrotation Xrotation Yrotation
        JOINT lShldr
        {
          OFFSET 8.77824 -1.95073 1.46304
          CHANNELS 3 Zrotation Xrotation Yrotation
          JOINT lForeArm
          {
            OFFSET 28.1742 -1.7115 0.48768
            CHANNELS 3 Zrotation Xrotation Yrotation
            JOINT lHand
            {
              OFFSET 22.5879 0.773209 7.07136
              CHANNELS 3 Zrotation Xrotation Yrotation
              JOINT lThumb1
              {
                OFFSET 1.2192 -0.487915 3.41376
                CHANNELS 3 Zrotation Xrotation Yrotation
                JOINT lThumb2
                {
                  OFFSET 3.37035 -0.52449 3.41376
                  CHANNELS 3 Zrotation Xrotation Yrotation
                  End Site
                  {
                    OFFSET 1.78271 -1.18214 1.43049
                  }
                }
              }
              JOINT lIndex1
              {
                OFFSET 7.75947 0.938293 5.60832
                CHANNELS 3 Zrotation Xrotation Yrotation
                JOINT lIndex2
                {
                  OFFSET 2.54057 -0.884171 1.56538
                  CHANNELS 3 Zrotation Xrotation Yrotation
                  End Site
                  {
                    OFFSET 1.62519 -0.234802 1.16502
                  }
                }
              }
              JOINT lMid1
              {
                OFFSET 8.24714 1.18213 3.41376
                CHANNELS 3 Zrotation Xrotation Yrotation
                JOINT lMid2
                {
                  OFFSET 3.10165 -0.590103 1.0647
                  CHANNELS 3 Zrotation Xrotation Yrotation
                  End Site
                  {
                    OFFSET 2.48547 -0.328903 0.83742
                  }
                }
              }
              JOINT lRing1
              {
                OFFSET 8.82822 0.546677 1.51678
                CHANNELS 3 Zrotation Xrotation Yrotation
                JOINT lRing2
                {
                  OFFSET 2.60934 -0.819778 -0.0198488
                  CHANNELS 3 Zrotation Xrotation Yrotation
                  End Site
                  {
                    OFFSET 2.33842 -0.294052 0.168128
                  }
                }
              }
              JOINT lPinky1
              {
                OFFSET 8.27202 -0.0477905 -0.4584
                CHANNELS 3 Zrotation Xrotation Yrotation
                JOINT lPinky2
                {
                  OFFSET 1.82734 -0.647385 -0.700984
                  CHANNELS 3 Zrotation Xrotation Yrotation
                  End Site
                  {
                    OFFSET 1.69225 -0.51767 -0.607171
                  }
                }
              }
            }
          }
        }
      }
    }
  }
  JOINT rButtock
  {
    OFFSET -8.77824 4.35084 1.2192
    CHANNELS 3 Zrotation Xrotation Yrotation
    JOINT rThigh
    {
      OFFSET 0 -1.70687 -2.19456
      CHANNELS 3 Zrotation Xrotation Yrotation
      JOINT rShin
      {
        OFFSET 0 -36.8199 0.73152
        CHANNELS 3 Zrotation Xrotation Yrotation
        JOINT rFoot
        {
          OFFSET 0.73152 -45.1104 -5.12064
          CHANNELS 3 Zrotation Xrotation Yrotation
          End Site
          {
            OFFSET -1.1221 -3.69964 12.103
          }
        }
      }
    }
  }
  JOINT lButtock
  {
    OFFSET 8.77824 4.35084 1.2192
    CHANNELS 3 Zrotation Xrotation Yrotation
    JOINT lThigh
    {
      OFFSET 0 -1.70687 -2.19456
      CHANNELS 3 Zrotation Xrotation Yrotation
      JOINT lShin
      {
        OFFSET 0 -36.8199 0.73152
        CHANNELS 3 Zrotation Xrotation Yrotation
        JOINT lFoot
        {
          OFFSET -0.73152 -45.1104 -5.12064
          CHANNELS 3 Zrotation Xrotation Yrotation
          End Site
          {
            OFFSET 1.1221 -3.69964 12.103
          }
        }
      }
    }
  }
}
MOTION
Frames:	6
Frame Time:	0.03333
-0.3058 67.8496 0.49820000000000003 177.685397 65.141957 -175.963017 -12.363506 5.430427 98.499291 -6.871455 -8.825982 -113.724483 8.368415 30.648682 83.746512 -33.845198 4.679496 -146.055242 0.003282 0.0 0.000398 -0.002202 0.0 -0.00303 -158.468317 -30.055561 166.919748 149.454353 -26.025478 -169.894192 174.658385 48.376423 110.021037 169.281413 -19.069146 143.592742 1.842189 -1.827218 -0.25457 9.85131 -15.316802 -9.119525 1.505322 -2.484992 -0.828595 90.944276 -60.646911 38.61007 -125.644833 49.840685 115.275042 -176.531643 -42.264954 142.538282 -145.06136 -3.3069 -178.085714 -156.596407 22.861325 178.147276 -0.169417 -0.436291 -0.15593 -9.576873 -25.35052 -10.913368 -0.162746 -0.990104 0.218273 132.85317 -86.895037 -144.600409 121.310425 -8.847597 -171.906315 -28.957622 -51.466996 -18.944196 164.492739 -2.16714 -89.562052 -178.311287 -18.409325 -90.830789 -6.16699 -10.618275 3.073855 -179.766678 -38.251343 -104.963085 -149.547048 -77.525422 -117.4524 167.715036 -17.723481 -143.994788 -0.003851 1.77147 -0.555965 -6.769983 29.707116 -4.67665 149.119021 25.57277 145.199355 21.559166 -36.788331 22.864993 -179.98548 75.748952 -0.012812 164.910767 7.303399 -0.0 -33.916324 73.042207 -40.289525 37.223879 55.696629 57.295992 -0.000757 -0.001063 0.000974 3.212399 5.906769 151.392541 34.17068 -31.843614 122.878516 -51.006497 59.808953 173.031576
-0.3349 67.841 0.5426 177.623824 65.219991 -176.035173 -7.636186 6.15971 -82.315566 6.790362 4.175853 67.071445 8.648905 31.517905 89.93897 -34.168668 8.385563 -151.244731 0.002982 0.0 0.0007 -0.002733 -0.0 0.00082 -9.651482 34.836167 11.199387 -113.126597 -6.714633 151.62772 -170.568694 14.552247 -141.758374 -5.781086 19.507025 0.491199 -85.828787 38.630565 47.955937 20.913526 -26.464823 21.713653 -152.31605 -18.947811 121.43003 85.506727 -69.643856 33.258047 -36.036489 51.722908 29.832626 -4.587989 20.810952 4.362814 -70.642582 72.964804 88.426004 4.95408 29.768591 -0.372264 12.990871 44.344124 10.758371 -115.322172 -42.566711 -113.354306 155.460212 -3.22768 -161.777845 59.577539 15.186725 -1.211226 138.6943 -9.15211 147.815168 -6.737938 -13.289954 -3.057717 171.602573 -9.286482 -89.950676 149.612745 5.172099 -77.362999 -73.418749 -73.572023 -26.561224 -39.141055 -36.481457 3.539879 0.056048 0.168173 -0.031732 -3.494806 -0.791635 0.131096 145.118667 0.226817 179.199182 -12.118183 44.702994 3.864793 3.601083 -8.611113 3.365248 -2.66622 0.020345 -0.01273 179.971202 75.748402 0.022196 164.911185 5.017126 180.0 36.215975 -84.586838 46.608877 -150.235303 14.523999 -173.708448 -179.976825 75.748885 -0.015856 -149.052797 82.801129 -30.674082 3.388903 44.521118 100.176617 -111.708574 39.976255 -3.568311
-0.3443 67.8269 0.5512 177.680939 65.35355 -175.880316 -9.990556 8.233665 -0.0 7.53061 -8.192755 -14.250381 6.927392 27.726489 68.979483 -30.780084 -4.081724 -133.361345 0.000359 -0.0 -0.002968 0.000696 0.0 0.001556 -155.548963 -3.804428 161.899336 -47.603494 7.159085 12.67565 174.04234 19.117075 -137.005195 -12.054038 35.997411 2.759129 -2.607683 2.554872 0.45754 -122.920143 -15.938722 109.802019 -108.427795 34.160763 91.742676 -16.867033 32.856993 5.232937 -160.674182 -6.667363 143.246338 2.93417 0.82833 0.471265 0.005507 1.771345 0.556737 -155.574488 -1.353011 172.012456 12.988026 44.344278 10.76277 -128.576825 -29.992136 -126.040326 85.537503 68.182823 -88.688935 -74.459351 -16.466194 -86.642938 -68.298996 -39.019201 -79.189826 81.075424 76.503819 -63.695676 -83.254384 -50.25699 -33.616073 33.574879 8.396238 6.299422 -10.211001 -18.050803 4.564032 2.896272 21.362243 -5.256772 125.6432 49.840212 -115.274929 172.065404 -31.385482 -143.789501 145.100088 -1.521826 178.649424 71.172085 -78.001868 92.806667 144.258914 9.237826 141.009927 126.525012 -29.677162 124.098315 -179.997568 75.748604 -0.0 166.018404 5.677389 -111.668834 -81.461664 -29.589984 -27.427986 117.245648 -28.413312 -154.302981 179.983225 75.749097 0.011478 -146.921924 81.116948 -126.744187 -49.888934 -7.837535 -93.900802 -65.524945 -18.133058 -140.796448
-0.3374 67.80969999999999 0.5918 177.530745 65.408428 -176.035794 -9.982076 8.224498 1.026547 7.421308 -8.317627 -15.254188 -6.501186 42.17478 -151.896505 17.863311 42.305509 85.568694 -0.005378 -0.0 0.000595 0.000337 0.0 0.000484 3.191796 -25.838929 -5.073988 55.501413 4.832904 -22.793444 173.956837 -23.732762 99.738241 169.91023 -17.231378 143.888231 -171.670586 -9.35345 89.949409 -126.980669 12.637449 61.449943 -77.666955 43.029223 64.538805 -167.309726 -15.074092 114.03096 -169.090875 -33.247312 145.374189 -114.07011 58.989054 104.321395 -74.840569 72.960491 92.828165 5.871473 1.761189 -4.320303 -140.390254 -1.531774 -137.475165 2.265676 -0.773938 -2.18957 40.037667 -86.056323 61.568369 90.377282 -26.267539 101.084757 -92.895599 33.256594 117.152562 168.09064 48.376015 -142.354761 164.697829 -2.372134 -89.585578 46.745755 -16.365102 -12.445564 165.266377 -41.650894 -122.351163 173.219163 -40.852315 -115.67378 160.825629 -7.141659 -143.317266 -3.083744 0.391892 -0.412157 71.925191 72.974262 -89.771742 -4.972461 29.769479 0.410216 148.071703 21.784953 144.326317 147.821614 11.920264 141.758529 -179.987019 75.750707 -0.010681 166.100144 5.61447 -111.570575 -74.668645 -30.191739 29.773937 40.919298 -84.638845 139.977115 -0.000283 -0.001065 0.000364 3.713773 7.931218 -0.0 -13.383912 44.049532 -110.230173 72.19173 11.902736 144.157968
-0.338 67.7901 0.6214 177.735909 65.503789 -175.859605 -7.791786 4.606714 -120.410585 1.275384 6.943635 105.338585 3.98329 24.750878 47.946741 -23.589569 -15.089673 -113.779395 0.001386 -0.0 -0.002656 0.001386 -0.0 -0.002656 -14.939218 44.24053 16.830205 -118.060402 -9.270807 143.294325 9.996075 -29.663882 -71.329912 168.612991 -20.7188 143.320878 -178.927687 -16.453567 89.422578 -77.828948 9.251325 24.340384 -166.82252 -43.973525 122.061925 -3.730853 29.480639 -0.654823 -160.673436 -6.667958 143.244596 179.887758 -48.694741 140.889019 -145.100066 -1.520925 -178.64979 -76.035127 -77.982273 -97.691877 -87.575725 -50.207565 -85.929598 -2.16316 -12.983408 -5.767484 158.467656 -30.055391 -166.920557 -119.876539 32.533116 154.898597 17.719833 27.507073 -47.542814 1.019567 10.668624 -0.998164 173.77094 -11.439898 -89.890887 127.224201 13.656488 -61.932904 90.225754 41.073554 -75.796919 -68.224575 -62.183734 -23.920647 161.1527 -8.160563 -143.465941 42.499572 58.272927 -36.597779 145.064196 -3.306028 178.088254 6.668775 -61.122719 27.907096 7.143179 -15.707283 6.729326 147.553456 13.42816 144.069618 179.989014 75.748791 0.007517 166.288876 5.786603 -98.581582 -79.926542 -17.605316 -9.133611 -4.650041 63.179497 108.228806 179.998678 75.748791 -0.0 -156.878317 80.60645 156.597668 -0.629856 -40.158026 -143.148848 86.731884 -9.390946 8.698572
-0.32820000000000005 67.7736 0.6565 177.813539 65.572761 -175.789869 -9.781836 8.196616 0.0 7.471631 -8.13031 -14.103694 -10.397593 24.993216 -27.278183 23.336034 -18.924499 -28.625166 0.003723 -0.0 -0.000197 0.003723 -0.0 -0.000197 -13.947688 42.750213 15.785169 -58.697559 46.67058 116.169525 167.370971 -40.559632 -151.232385 -13.227098 38.568726 3.366849 114.538572 -50.24524 55.721802 -142.449337 17.146405 97.819088 -145.520714 -6.585374 118.766439 -20.166298 42.162251 8.568951 173.124936 -66.298024 137.614337 -42.517567 58.332164 36.424539 0.000569 0.064116 0.01825 -155.853308 -8.256636 172.843424 12.253695 41.424812 10.279059 14.740326 44.092839 8.327556 13.945742 42.750792 -15.783226 112.105702 -14.551869 -129.214308 -179.832128 28.006016 139.727337 9.72135 35.846713 -2.612067 4.034924 3.931457 -0.755762 -38.374478 -56.693806 14.964383 152.314694 -18.948188 -121.430064 -3.518264 15.275256 6.781264 160.097307 -4.901674 -142.96757 42.49107 58.273495 -36.601956 145.118444 0.184953 179.187801 79.448433 87.679695 -92.756474 8.190749 -17.576292 7.728024 77.515917 -54.690958 77.507156 179.99902 75.750356 0.001011 166.334961 6.291115 -71.315686 -82.11136 19.899526 -125.257068 134.214392 52.824726 155.627854 -179.992062 75.75133 -0.007004 -149.841011 82.598247 -29.877329 -1.326022 36.653388 18.204285 101.677168 12.644634 2.733936
